<svg id="SvgjsSvg1001" width="288" height="288" xmlns="http://www.w3.org/2000/svg" version="1.1" xmlns:xlink="http://www.w3.org/1999/xlink" xmlns:svgjs="http://svgjs.com/svgjs"><defs id="SvgjsDefs1002"></defs><g id="SvgjsG1008" transform="matrix(0.916700005531311,0,0,0.916700005531311,11.849912643432617,11.99048137664795)"><svg xmlns="http://www.w3.org/2000/svg" enable-background="new 0 0 256 256" viewBox="0 0 256 256" width="288" height="288"><g id="Contract" fill="#2787cc" class="color000 svgShape"><path d="M180.9,255.9H31.3c-7.9,0-14.3-6.4-14.3-14.3V14.3C17,6.4,23.4,0,31.3,0h149.6c7.9,0,14.3,6.4,14.3,14.3v79.5
			c0,1.4-1.1,2.5-2.5,2.5s-2.5-1.1-2.5-2.5V14.3c0-5.2-4.2-9.4-9.4-9.4H31.3c-5.2,0-9.4,4.2-9.4,9.4v227.2c0,5.2,4.2,9.4,9.4,9.4
			h149.6c5.2,0,9.4-4.2,9.4-9.4v-55.8c0-1.4,1.1-2.5,2.5-2.5s2.5,1.1,2.5,2.5v55.8C195.3,249.5,188.8,255.9,180.9,255.9z" fill="#2787cc" class="color000 svgShape"></path><path d="M167.5 34.3H42.7c-1.4 0-2.5-1.1-2.5-2.5s1.1-2.5 2.5-2.5h124.8c1.4 0 2.5 1.1 2.5 2.5S168.8 34.3 167.5 34.3zM168.5 65.2H43.7c-1.4 0-2.5-1.1-2.5-2.5 0-1.4 1.1-2.5 2.5-2.5h124.8c1.4 0 2.5 1.1 2.5 2.5C171 64.1 169.9 65.2 168.5 65.2zM167.5 103.5H42.7c-1.4 0-2.5-1.1-2.5-2.5s1.1-2.5 2.5-2.5h124.8c1.4 0 2.5 1.1 2.5 2.5S168.8 103.5 167.5 103.5zM167.5 141.8H42.7c-1.4 0-2.5-1.1-2.5-2.5s1.1-2.5 2.5-2.5h124.8c1.4 0 2.5 1.1 2.5 2.5S168.8 141.8 167.5 141.8zM159.2 180.1H42.6c-1.4 0-2.5-1.1-2.5-2.5s1.1-2.5 2.5-2.5h116.5c1.4 0 2.5 1.1 2.5 2.5S160.5 180.1 159.2 180.1zM78 239.7H54.4c-7.8 0-14.2-6.4-14.2-14.2v-5.3c0-7.8 6.4-14.2 14.2-14.2H78c7.8 0 14.2 6.4 14.2 14.2v5.3C92.2 233.3 85.8 239.7 78 239.7zM54.4 210.9c-5.1 0-9.3 4.2-9.3 9.3v5.3c0 5.1 4.2 9.3 9.3 9.3H78c5.1 0 9.3-4.2 9.3-9.3v-5.3c0-5.1-4.2-9.3-9.3-9.3H54.4zM139.7 228.8c-.3 0-.7 0-1-.1-1.7-.3-3.3-1.3-4.2-2.8l-3.2-5c-.3-.5-.9-.6-1.1-.6-.2 0-.7 0-1.1.6l-3 4.5c-1.5 2.2-4.2 3.2-6.8 2.5-2.6-.7-4.4-2.9-4.5-5.6l-.6-12.1c0-.9-.7-1.1-1-1.2-.3-.1-1-.1-1.4.7l-7.4 14.4c-.6 1.2-2.1 1.7-3.3 1.1-1.2-.6-1.7-2.1-1.1-3.3l7.4-14.4c1.3-2.5 4-3.8 6.8-3.2 2.8.6 4.7 2.9 4.9 5.7l.6 12.1c0 .8.7 1.1.9 1.2.3.1.9.2 1.4-.5l3-4.5c1.2-1.7 3.1-2.8 5.2-2.7 2.1 0 4 1.1 5.1 2.9l3.2 5c.3.4.7.5.9.6.2 0 .6 0 1-.3l21.5-17c1.1-.8 2.6-.7 3.4.4.8 1.1.7 2.6-.4 3.4l-21.5 17C142.4 228.3 141 228.8 139.7 228.8z" fill="#2787cc" class="color000 svgShape"></path><path d="M192.8,188.7c-0.3,0-0.7-0.1-1-0.2l-34-14.9c-0.6-0.3-1.1-0.7-1.3-1.4c-0.2-0.6-0.2-1.3,0-1.9l38.9-88.7
			c3.2-7.3,11.7-10.6,19-7.4l12,5.3c3.5,1.6,6.3,4.4,7.7,8c1.4,3.6,1.3,7.5-0.2,11.1l-38.9,88.7c-0.3,0.6-0.7,1.1-1.4,1.3
			C193.4,188.6,193.1,188.7,192.8,188.7z M162.1,170.1l29.5,13l37.9-86.4c1-2.3,1.1-4.9,0.2-7.3c-0.9-2.4-2.7-4.2-5.1-5.3l-12-5.3
			c-4.8-2.1-10.5,0.1-12.6,4.9L162.1,170.1z" fill="#2787cc" class="color000 svgShape"></path><path d="M229.2 86.7c-.3 0-.7-.1-1-.2-1.2-.5-1.8-2-1.3-3.2l3.2-7.3c.5-1.1.7-2.2.7-3.4 0-3.3-2-6.4-5-7.7-2.1-.9-4.3-1-6.4-.1-2.1.8-3.7 2.4-4.6 4.5l-3.2 7.3c-.5 1.2-2 1.8-3.2 1.3-1.2-.5-1.8-2-1.3-3.2l3.2-7.3c1.4-3.3 4-5.8 7.4-7.1 3.3-1.3 6.9-1.2 10.2.2 4.8 2.1 8 6.9 8 12.2 0 1.8-.4 3.6-1.1 5.3l-3.2 7.3C231 86.1 230.1 86.7 229.2 86.7zM192.3 151.8c-1.7 0-3.4-.4-5-1.1-6.3-2.8-9.2-10.2-6.4-16.5l14.4-32.7c1.3-3.1 3.8-5.4 6.9-6.6 3.1-1.2 6.5-1.1 9.6.2 3.1 1.3 5.4 3.8 6.6 6.9 1.2 3.1 1.1 6.5-.2 9.6l-14.4 32.7c-1.3 3.1-3.8 5.4-6.9 6.6C195.3 151.5 193.8 151.8 192.3 151.8zM206.6 99c-.9 0-1.9.2-2.8.5-1.9.7-3.4 2.2-4.2 4l-14.4 32.7c-1.7 3.8.1 8.3 3.9 10 1.9.8 3.9.9 5.8.1 1.9-.7 3.4-2.2 4.2-4l14.4-32.7c.8-1.9.9-3.9.1-5.8-.7-1.9-2.2-3.4-4-4.2C208.7 99.2 207.7 99 206.6 99zM161.9 212.5c-.3 0-.7-.1-1-.2-.8-.4-1.4-1.1-1.5-2l-3.3-39.3c-.1-.9.3-1.7 1-2.2.7-.5 1.6-.6 2.4-.2l34.4 15.1c.8.3 1.3 1.1 1.4 1.9.1.9-.2 1.7-.9 2.2L163.4 212C162.9 212.3 162.4 212.5 161.9 212.5zM161.4 174.7l2.6 30.7 24.3-18.9L161.4 174.7z" fill="#2787cc" class="color000 svgShape"></path></g></svg></g></svg>