<?xml version="1.0" encoding="iso-8859-1" ?>
              <svg
                version="1.1"
                xmlns="http://www.w3.org/2000/svg"
                xmlns:xlink="http://www.w3.org/1999/xlink"
                viewBox="0 0 983 655.3333333333334"
                width="983"
                height="655.3333333333334"
              >
                <g transform="translate(325.113 163.833) scale(1.109 1.111) rotate(0 150.0360685302074 147.46174617461747)"><g clip-path="url(#clipPath__vgWEZ0C_vBt-AMeYWsH_)"><defs>
          <clipPath id="clipPath__vgWEZ0C_vBt-AMeYWsH_">
            <rect x="0" y="0" width="300" height="295" />
          </clipPath>
       </defs> <ellipse fill="#A1C3FC" cx="66.714" cy="131.452" rx="66.714" ry="66.659"/> <polygon fill="#23286B" points="217.326,291.334 68.941,283.45 76.832,135.187 225.217,143.071 "/> <polygon fill="#1D72D8" points="212.21,264.77 66.718,295 36.463,149.627 181.955,119.398 "/> <g>  <path fill="#151A4F" d="M72.67,209.419l0.591-0.139c-0.202,0.027-0.405,0.043-0.607,0.068L72.67,209.419z"/>  <path fill="#151A4F" d="M41.751,96.903l-0.573-2.441c-2.62,1.15-5.126,2.475-7.512,3.959l0.084,0.359L41.751,96.903z"/>  <path fill="#151A4F" d="M63.885,91.716l-0.55-2.341c-2.729,0.1-5.479,0.387-8.238,0.87l0.785,3.345L63.885,91.716z"/>  <path fill="#151A4F" d="M13.289,119.492c-0.391,0.679-0.769,1.368-1.135,2.061l1.535-0.359L13.289,119.492z"/>     <rect x="26.775" y="108.831" transform="matrix(0.2286 0.9735 -0.9735 0.2286 133.7729 57.0615)" fill="#151A4F" width="8.212" height="8.218"/>     <rect x="48.91" y="103.642" transform="matrix(0.2286 0.9735 -0.9735 0.2286 145.7969 31.5094)" fill="#151A4F" width="8.212" height="8.218"/>     <rect x="71.046" y="98.456" transform="matrix(0.2286 0.9735 -0.9735 0.2286 157.824 5.9598)" fill="#151A4F" width="8.212" height="8.218"/>  <path fill="#151A4F" d="M100.8,100.771c-2.565-1.852-5.27-3.506-8.092-4.936l1.522,6.477L100.8,100.771z"/>     <rect x="18.138" y="127.162" transform="matrix(0.2286 0.9735 -0.9735 0.2286 144.955 79.611)" fill="#151A4F" width="8.212" height="8.218"/>     <rect x="40.271" y="121.973" transform="matrix(0.2286 0.9735 -0.9735 0.2286 156.9776 54.0605)" fill="#151A4F" width="8.212" height="8.218"/>     <rect x="62.409" y="116.787" transform="matrix(0.2286 0.9735 -0.9735 0.2286 169.0067 28.5087)" fill="#151A4F" width="8.212" height="8.218"/>     <rect x="84.542" y="111.598" transform="matrix(0.2286 0.9735 -0.9735 0.2286 181.0297 2.9582)" fill="#151A4F" width="8.212" height="8.218"/>  <path fill="#151A4F" d="M107.725,115.454l6.393-1.5c-1.84-2.504-3.869-4.845-6.05-7.015l-2.222,0.521L107.725,115.454z"/>     <rect x="12.208" y="146.273" transform="matrix(0.9736 -0.2282 0.2282 0.9736 -33.888 7.6922)" fill="#151A4F" width="8.218" height="8.212"/>     <rect x="34.346" y="141.073" transform="matrix(0.2286 0.9735 -0.9735 0.2286 171.0018 74.5638)" fill="#151A4F" width="8.212" height="8.218"/>     <rect x="56.483" y="135.885" transform="matrix(0.2286 0.9735 -0.9735 0.2286 183.028 49.0108)" fill="#151A4F" width="8.212" height="8.218"/>     <rect x="78.616" y="130.698" transform="matrix(0.2286 0.9735 -0.9735 0.2286 195.053 23.4617)" fill="#151A4F" width="8.212" height="8.218"/>     <rect x="100.752" y="125.508" transform="matrix(0.2286 0.9735 -0.9735 0.2286 207.0765 -2.0918)" fill="#151A4F" width="8.212" height="8.218"/>  <path fill="#151A4F" d="M10.744,163.773l-3.589,0.841c0.696,2.7,1.558,5.316,2.586,7.829l2.879-0.674L10.744,163.773z"/>     <rect x="25.713" y="159.414" transform="matrix(-0.2286 -0.9735 0.9735 -0.2286 -122.5589 229.9289)" fill="#151A4F" width="8.212" height="8.218"/>     <rect x="47.85" y="154.224" transform="matrix(-0.2286 -0.9735 0.9735 -0.2286 -90.3099 245.1045)" fill="#151A4F" width="8.212" height="8.218"/>     <rect x="69.984" y="149.035" transform="matrix(-0.2286 -0.9735 0.9735 -0.2286 -58.065 260.2762)" fill="#151A4F" width="8.212" height="8.218"/>     <rect x="92.117" y="143.841" transform="matrix(-0.9736 0.2282 -0.2282 -0.9736 223.6768 270.0299)" fill="#151A4F" width="8.218" height="8.212"/>     <rect x="114.245" y="138.648" transform="matrix(0.2286 0.9735 -0.9735 0.2286 230.2767 -5.0915)" fill="#151A4F" width="8.212" height="8.218"/>     <rect x="19.787" y="178.514" transform="matrix(-0.2286 -0.9735 0.9735 -0.2286 -148.4335 247.6259)" fill="#151A4F" width="8.212" height="8.218"/>     <rect x="41.926" y="173.328" transform="matrix(-0.2286 -0.9735 0.9735 -0.2286 -116.1858 262.8069)" fill="#151A4F" width="8.212" height="8.218"/>     <rect x="64.059" y="168.137" transform="matrix(-0.2286 -0.9735 0.9735 -0.2286 -83.9411 277.9766)" fill="#151A4F" width="8.212" height="8.218"/>     <rect x="86.195" y="162.946" transform="matrix(-0.2286 -0.9735 0.9735 -0.2286 -51.6915 293.1484)" fill="#151A4F" width="8.212" height="8.218"/>     <rect x="108.331" y="157.758" transform="matrix(-0.2286 -0.9735 0.9735 -0.2286 -19.4444 308.3251)" fill="#151A4F" width="8.212" height="8.218"/>     <rect x="33.284" y="191.656" transform="matrix(-0.2286 -0.9735 0.9735 -0.2286 -144.6465 276.9111)" fill="#151A4F" width="8.212" height="8.218"/>     <rect x="55.421" y="186.468" transform="matrix(-0.2286 -0.9735 0.9735 -0.2286 -112.3981 292.0881)" fill="#151A4F" width="8.212" height="8.218"/>     <rect x="77.556" y="181.279" transform="matrix(-0.2286 -0.9735 0.9735 -0.2286 -80.1534 307.2624)" fill="#151A4F" width="8.212" height="8.218"/>     <rect x="99.691" y="176.088" transform="matrix(-0.2286 -0.9735 0.9735 -0.2286 -47.9051 322.433)" fill="#151A4F" width="8.212" height="8.218"/>  <path fill="#151A4F" d="M120.989,171.946l0.161,0.688c0.111-0.268,0.221-0.534,0.328-0.804L120.989,171.946z"/>  <path fill="#151A4F" d="M48.66,206.612l0.193,0.82c2.893,0.834,5.856,1.457,8.875,1.847l-1.067-4.545L48.66,206.612z"/>  <path fill="#151A4F" d="M78.795,199.55l-8.001,1.874l1.86,7.921c0.202-0.025,0.405-0.041,0.607-0.068l7.41-1.737L78.795,199.55z"/>  <path fill="#151A4F" d="M92.928,196.237l1.451,6.177c2.575-1.405,5.024-2.982,7.333-4.718l-0.782-3.333L92.928,196.237z"/> </g> <g>  <polygon fill="#A1C3FC" points="207.347,138.531 197.015,143.821 210.063,143.821  "/>  <polygon fill="#A1C3FC" points="160.877,162.328 219.553,162.328 214.559,152.588 179.898,152.588  "/>  <polygon fill="#A1C3FC" points="124.74,180.833 229.047,180.833 224.05,171.093 143.758,171.093  "/>  <polygon fill="#A1C3FC" points="129.63,199.338 238.538,199.338 233.541,189.598 124.633,189.598  "/>  <polygon fill="#A1C3FC" points="139.121,217.846 248.029,217.846 243.034,208.106 134.126,208.106  "/>  <polygon fill="#A1C3FC" points="148.614,236.351 226.932,236.351 245.952,226.611 143.617,226.611  "/>  <polygon fill="#A1C3FC" points="158.105,254.855 190.792,254.855 209.812,245.115 153.11,245.115  "/>  <polygon fill="#A1C3FC" points="164.905,268.113 173.675,263.62 162.601,263.62  "/> </g> <polygon fill="#1D72D8" points="263.34,140.342 248.415,133.458 255.304,118.546 270.229,125.43 "/> <polygon fill="#A1C3FC" points="248.95,94.493 239.408,90.092 243.813,80.559 253.354,84.96 "/> <ellipse fill="#D6D7D8" cx="90.975" cy="243.564" rx="10.235" ry="10.227"/> <polygon fill="#FFFFFF" points="54.585,106.736 123.505,198.113 248.5,9 54.641,106.672 "/> <polygon fill="#D62929" points="124.392,225.722 41.869,116.31 67.298,97.162 122.616,170.505 234.785,0 261.395,17.478 "/> <polygon fill="#1D72D8" points="95.525,136.951 69.546,124.968 81.538,99.01 107.518,110.992 "/> <g>  <path fill="#23286B" d="M125.136,138.927c-0.007,0-0.014,0-0.02,0c-0.398-0.007-0.762-0.221-0.962-0.564   c-15.09-25.873-31.912-51.102-50-74.992c-0.38-0.5-0.28-1.214,0.221-1.593c0.5-0.38,1.212-0.282,1.594,0.221   c17.765,23.468,34.313,48.222,49.208,73.608c14.749-23.1,32-44.67,51.296-64.139c0.443-0.446,1.162-0.448,1.61-0.007   c0.446,0.441,0.45,1.161,0.007,1.609c-19.616,19.794-37.109,41.773-51.99,65.329C125.888,138.726,125.524,138.927,125.136,138.927z   "/> </g> <g>  <path fill="#23286B" d="M209.496,126.796c-0.293,0-0.589-0.114-0.812-0.341c-0.439-0.448-0.432-1.168,0.016-1.607   c17.137-16.814,45.694-20.35,66.43-8.215c0.541,0.318,0.723,1.013,0.407,1.557c-0.318,0.541-1.014,0.722-1.558,0.407   c-19.871-11.632-47.25-8.244-63.684,7.875C210.072,126.687,209.785,126.796,209.496,126.796z"/> </g> <path fill="none" stroke="#23286B" stroke-linecap="round" stroke-linejoin="round" stroke-miterlimit="10" d="M298.11,106.413"/> <g>  <path fill="#23286B" d="M298.861,106.03c-0.448,0-0.873-0.268-1.053-0.709c-5.188-12.733-20.779-20.43-34.054-16.805   c-0.6,0.159-1.23-0.189-1.396-0.797c-0.166-0.606,0.191-1.232,0.798-1.395c14.338-3.902,31.161,4.397,36.761,18.141   c0.237,0.582-0.043,1.243-0.623,1.48C299.149,106.005,299.004,106.03,298.861,106.03z"/> </g> </g></g>
              </svg>