<?xml version="1.0" encoding="iso-8859-1" ?>
              <svg
                version="1.1"
                xmlns="http://www.w3.org/2000/svg"
                xmlns:xlink="http://www.w3.org/1999/xlink"
                viewBox="0 0 983 655.3333333333334"
                width="983"
                height="655.3333333333334"
              >
                <g transform="translate(286.969 163.833) scale(1.364 1.365) rotate(0 149.94868035190615 120.02197802197803)"><g clip-path="url(#clipPath_JbNxsvOdWgckEQFKlpeuw)"><defs>
          <clipPath id="clipPath_JbNxsvOdWgckEQFKlpeuw">
            <rect x="0" y="0" width="300" height="240" />
          </clipPath>
       </defs> <linearGradient id="SVGID_1_JbNxsvOdWgckEQFKlpeuw" gradientUnits="userSpaceOnUse" x1="1427.4817" y1="2298.1077" x2="2178.9756" y2="2298.1077" gradientTransform="matrix(0.1875 -0.0696 0.0696 0.1875 -326.9215 -162.1984)">  <stop offset="0" stop-color="#23286B"/>  <stop offset="1" stop-color="#151A4F"/> </linearGradient> <polygon fill="url(#SVGID_1_JbNxsvOdWgckEQFKlpeuw)" points="267.623,187.562 126.907,240 74.641,98.821 215.357,46.384 "/> <path fill="#F2A19C" d="M215.415,117.58c1.349,0.894,2.686,1.901,3.512,3.297c0.824,1.396,1.029,3.27,0.112,4.607  c-1.01,1.472-3.085,1.875-4.808,1.426c-1.723-0.449-3.182-1.574-4.586-2.672c-6.708-5.241-13.448-10.512-19.25-16.749  c2.189-4.42,6.395-7.414,9.692-11.077c2.915-3.239,5.161-7.081,6.554-11.215c5.648-0.158,12.95,3.923,16.356,8.444  c-4.626,8.17-14.243,12.424-21.953,17.758C206.15,112.581,211.041,114.685,215.415,117.58z"/> <path fill="#F2A19C" d="M205.818,128.318c-1.344,1.086-3.295,0.906-4.961,0.456c-5.586-1.511-10.226-5.317-14.677-9.023  c-0.868-0.723-1.751-1.461-2.357-2.416c-0.578-0.908-0.88-2.033-0.63-3.081c0.249-1.047,1.123-1.969,2.189-2.091  c0.681-0.078,1.354,0.158,1.994,0.403c1.97,0.751,3.898,1.61,5.824,2.469c2.176,0.97,4.35,1.94,6.525,2.91  c2.389,1.065,4.901,2.231,6.378,4.394C207.339,124.152,207.522,126.941,205.818,128.318z"/> <path fill="#FFBEB6" d="M238.615,86.813c-1.304-1.923-3.987-2.145-6.303-2.255c-11.65-0.552-23.55-3.234-32.997-10.099  c-0.91-0.662-1.875-1.388-2.998-1.421c-1.273-0.036-2.418,0.867-3.074,1.962c-0.656,1.095-0.927,2.371-1.253,3.606  c-3.361,12.671-13.287,22.401-23.224,30.918c0.547,1.336,2.076,1.959,3.485,2.25c6.277,1.299,12.885-1.312,17.701-5.554  c4.816-4.242,8.099-9.947,10.906-15.727c0.405-0.833,0.443-2.279-0.48-2.236c2.103,3.982,6.061,6.589,9.944,8.855  c2.771,1.619,5.675,3.183,8.857,3.583c5.318,0.669,10.455-1.999,14.967-4.901c1.575-1.013,3.166-2.107,4.186-3.681  C239.351,90.542,239.667,88.365,238.615,86.813z"/> <g>  <g>   <path fill="#D62929" d="M172.455,135.603c-0.326,0-0.655-0.101-0.938-0.312c-0.696-0.52-0.839-1.508-0.321-2.206l14.079-18.958    c0.519-0.698,1.5-0.842,2.199-0.322c0.696,0.52,0.839,1.508,0.321,2.206l-14.079,18.958    C173.408,135.384,172.934,135.603,172.455,135.603z"/>  </g>  <g>       <linearGradient id="SVGID_2_JbNxsvOdWgckEQFKlpeuw" gradientUnits="userSpaceOnUse" x1="-1070.905" y1="2414.1309" x2="-1351.0502" y2="2414.1309" gradientTransform="matrix(-0.1604 -0.1195 0.1195 -0.1604 -245.7674 321.0435)">    <stop offset="0" stop-color="#E94A47"/>    <stop offset="1" stop-color="#D62929"/>   </linearGradient>   <path fill="url(#SVGID_2_JbNxsvOdWgckEQFKlpeuw)" d="M239.948,30.155c-5.69,8.026-12.123,17.159-18.649,26.544    c-22.835,32.837-46.798,68.731-43.986,70.873c3.439,2.618,30.798-30.783,55.429-62.318c7.034-9.005,13.843-17.857,19.811-25.676    c6.353-8.324,11.751-15.476,15.446-20.391c2.922-3.888,2.323-9.278-1.335-12.011l0,0c-3.686-2.755-9.051-1.751-11.91,2.231    C251.168,14.398,245.974,21.655,239.948,30.155z"/>   <polygon fill="#1D72D8" points="256.142,22.969 255.104,15.838 262.212,14.797 263.249,21.927   "/>   <path fill="#23286B" d="M249.448,36.685l-2.152-14.785l-1.653,0.242c-1.789,2.51-3.694,5.191-5.695,8.012    c-1.734,2.446-3.537,4.996-5.391,7.622l0.156,1.067L249.448,36.685z"/>   <path fill="#78A9EF" d="M232.991,49.466l1.649,11.329l1.777-0.261c2.793-3.594,5.532-7.137,8.177-10.574l-0.313-2.148    L232.991,49.466z"/>   <polygon fill="#FFFFFF" points="220.093,67.965 219.307,62.563 224.692,61.774 225.478,67.176   "/>  </g>  <polygon fill="#428DFC" points="269.477,12.057 261.298,5.943 265.711,0 273.891,6.115  "/>  <g>   <path fill="#23286B" d="M245.325,59.195c-0.514,0-0.986-0.34-1.133-0.862c-1.308-4.641,0.629-10.098,5.176-14.596    c1.848-1.828,3.93-3.395,5.943-4.909c1.917-1.442,3.9-2.932,5.613-4.611c5.162-5.058,8.152-12.11,8.203-19.349    c0.005-0.829-0.041-1.675-0.413-2.236c-0.201-0.302-0.782-0.528-1.455-0.79c-0.899-0.35-2.017-0.786-3.118-1.703    c-0.235-0.197-0.458-0.376-0.668-0.545c-1.326-1.072-2.374-1.918-3.107-4.01c-0.216-0.616,0.107-1.291,0.721-1.508    c0.617-0.214,1.287,0.107,1.503,0.723c0.512,1.457,1.129,1.958,2.363,2.955c0.218,0.177,0.448,0.363,0.694,0.567    c0.806,0.672,1.651,1,2.467,1.318c0.958,0.373,1.95,0.759,2.563,1.683c0.726,1.092,0.817,2.358,0.809,3.564    c-0.055,7.865-3.304,15.528-8.914,21.024c-1.822,1.786-3.867,3.324-5.845,4.811c-1.951,1.467-3.968,2.984-5.703,4.7    c-3.927,3.885-5.632,8.472-4.563,12.27c0.177,0.628-0.186,1.281-0.813,1.459C245.539,59.181,245.431,59.195,245.325,59.195z"/>  </g> </g> <path fill="#FFBEB6" d="M232.297,130.413c5.723,2.502,12.265,0.441,18.359-0.917c13.937-3.107,28.725-2.279,42.231,2.362  c2.82-9.146,2.051-18.493,4.87-27.64c-6.387,1.37-9.186,2.94-15.574,4.31c-8.19,1.756-17.069,3.445-24.662-0.099  c-6.686-3.122-10.995-9.683-14.937-15.935c-2.219-3.519-5.318-7.501-9.445-7.063c-4.421,0.469-6.491,5.522-9.241,9.026  c-4.897,6.238-13.646,7.053-21.064,9.819c-8.939,3.332-11.84,5.391-19.255,6.916c-0.84,0.173-3.859,1.237-4.549,1.747  c-2.923,2.166,0.971,6.062,4.365,7.365c12.027,4.614,25.246-6.508,36.301,0.119C224.311,123.188,227.366,128.259,232.297,130.413z"/> <path fill="#A1C3FC" d="M116.569,51.193h-0.842c0.283,0.151,0.562,0.308,0.842,0.464V51.193z"/> <path fill="#A1C3FC" d="M115.369,139.352h3.602v-2.429c-1.169,0.744-2.369,1.443-3.602,2.09V139.352z"/> <path fill="#A1C3FC" d="M84.554,48.014v-1.998c-1.217,0.197-2.416,0.443-3.602,0.727v1.271H84.554L84.554,48.014z"/> <path fill="#A1C3FC" d="M93.158,48.014v-2.623c-0.226-0.003-0.45-0.017-0.677-0.017c-0.982,0-1.956,0.037-2.925,0.094v2.547h3.602  V48.014z"/> <path fill="#A1C3FC" d="M101.763,48.014v-1.756c-1.186-0.226-2.387-0.41-3.602-0.549v2.305  C98.161,48.014,101.763,48.014,101.763,48.014z"/> <path fill="#A1C3FC" d="M108.397,48.014c-0.54-0.184-1.082-0.365-1.632-0.531v0.531H108.397z"/> <path fill="#A1C3FC" d="M64.946,56.944v-3.173c-1.243,0.837-2.443,1.732-3.602,2.676v0.497H64.946L64.946,56.944z"/> <rect x="69.948" y="51.193" fill="#A1C3FC" width="3.602" height="5.751"/> <rect x="78.552" y="51.193" fill="#A1C3FC" width="3.602" height="5.751"/> <rect x="87.155" y="51.193" fill="#A1C3FC" width="3.602" height="5.751"/> <rect x="95.76" y="51.193" fill="#A1C3FC" width="3.602" height="5.751"/> <rect x="104.363" y="51.193" fill="#A1C3FC" width="3.602" height="5.751"/> <path fill="#A1C3FC" d="M112.968,56.944h3.602v-5.287c-0.279-0.156-0.558-0.313-0.842-0.464h-2.761  C112.968,51.193,112.968,56.944,112.968,56.944z"/> <path fill="#A1C3FC" d="M124.222,56.944c-0.859-0.721-1.744-1.411-2.65-2.073v2.073H124.222z"/> <path fill="#A1C3FC" d="M58.742,66.282v-5.751h-1.831c-0.607,0.631-1.196,1.277-1.77,1.939v3.813  C55.141,66.282,58.742,66.282,58.742,66.282z"/> <rect x="63.745" y="60.531" fill="#A1C3FC" width="3.602" height="5.751"/> <rect x="72.348" y="60.531" fill="#A1C3FC" width="3.602" height="5.751"/> <rect x="80.953" y="60.531" fill="#A1C3FC" width="3.602" height="5.751"/> <rect x="89.557" y="60.531" fill="#A1C3FC" width="3.602" height="5.751"/> <rect x="98.16" y="60.531" fill="#A1C3FC" width="3.602" height="5.751"/> <rect x="106.764" y="60.531" fill="#A1C3FC" width="3.602" height="5.751"/> <rect x="115.369" y="60.531" fill="#A1C3FC" width="3.602" height="5.751"/> <rect x="123.973" y="60.531" fill="#A1C3FC" width="3.602" height="5.751"/> <path fill="#A1C3FC" d="M132.814,66.282c-0.078-0.111-0.157-0.223-0.236-0.334v0.334H132.814z"/> <path fill="#A1C3FC" d="M47.737,73.823c-0.216,0.459-0.423,0.923-0.626,1.39h0.626V73.823z"/> <rect x="52.74" y="69.461" fill="#A1C3FC" width="3.602" height="5.751"/> <rect x="61.343" y="69.461" fill="#A1C3FC" width="3.602" height="5.751"/> <rect x="69.948" y="69.461" fill="#A1C3FC" width="3.602" height="5.751"/> <rect x="78.552" y="69.461" fill="#A1C3FC" width="3.602" height="5.751"/> <rect x="87.155" y="69.461" fill="#A1C3FC" width="3.602" height="5.751"/> <rect x="95.76" y="69.461" fill="#A1C3FC" width="3.602" height="5.751"/> <rect x="104.363" y="69.461" fill="#A1C3FC" width="3.602" height="5.751"/> <rect x="112.968" y="69.461" fill="#A1C3FC" width="3.602" height="5.751"/> <rect x="121.572" y="69.461" fill="#A1C3FC" width="3.602" height="5.751"/> <rect x="130.175" y="69.461" fill="#A1C3FC" width="3.602" height="5.751"/> <rect x="46.536" y="78.799" fill="#A1C3FC" width="3.602" height="5.751"/> <rect x="55.141" y="78.799" fill="#A1C3FC" width="3.602" height="5.751"/> <rect x="63.745" y="78.799" fill="#A1C3FC" width="3.602" height="5.751"/> <rect x="72.348" y="78.799" fill="#A1C3FC" width="3.602" height="5.751"/> <rect x="80.953" y="78.799" fill="#A1C3FC" width="3.602" height="5.751"/> <rect x="89.557" y="78.799" fill="#A1C3FC" width="3.602" height="5.751"/> <rect x="98.16" y="78.799" fill="#A1C3FC" width="3.602" height="5.751"/> <rect x="106.764" y="78.799" fill="#A1C3FC" width="3.602" height="5.751"/> <rect x="115.369" y="78.799" fill="#A1C3FC" width="3.602" height="5.751"/> <rect x="123.973" y="78.799" fill="#A1C3FC" width="3.602" height="5.751"/> <rect x="132.576" y="78.799" fill="#A1C3FC" width="3.602" height="5.751"/> <rect x="44.135" y="87.729" fill="#A1C3FC" width="3.602" height="5.751"/> <rect x="52.74" y="87.729" fill="#A1C3FC" width="3.602" height="5.751"/> <rect x="61.343" y="87.729" fill="#A1C3FC" width="3.602" height="5.751"/> <rect x="69.948" y="87.729" fill="#A1C3FC" width="3.602" height="5.751"/> <rect x="78.552" y="87.729" fill="#A1C3FC" width="3.602" height="5.751"/> <rect x="87.155" y="87.729" fill="#A1C3FC" width="3.602" height="5.751"/> <rect x="95.76" y="87.729" fill="#A1C3FC" width="3.602" height="5.751"/> <rect x="104.363" y="87.729" fill="#A1C3FC" width="3.602" height="5.751"/> <rect x="112.968" y="87.729" fill="#A1C3FC" width="3.602" height="5.751"/> <rect x="121.572" y="87.729" fill="#A1C3FC" width="3.602" height="5.751"/> <rect x="130.175" y="87.729" fill="#A1C3FC" width="3.602" height="5.751"/> <path fill="#A1C3FC" d="M138.78,93.48h3.137c-0.059-1.947-0.22-3.867-0.496-5.751h-2.641V93.48z"/> <rect x="46.536" y="97.066" fill="#A1C3FC" width="3.602" height="5.751"/> <rect x="55.141" y="97.066" fill="#A1C3FC" width="3.602" height="5.751"/> <rect x="63.745" y="97.066" fill="#A1C3FC" width="3.602" height="5.751"/> <rect x="72.348" y="97.066" fill="#A1C3FC" width="3.602" height="5.751"/> <rect x="80.953" y="97.066" fill="#A1C3FC" width="3.602" height="5.751"/> <rect x="89.557" y="97.066" fill="#A1C3FC" width="3.602" height="5.751"/> <rect x="98.16" y="97.066" fill="#A1C3FC" width="3.602" height="5.751"/> <rect x="106.764" y="97.066" fill="#A1C3FC" width="3.602" height="5.751"/> <rect x="115.369" y="97.066" fill="#A1C3FC" width="3.602" height="5.751"/> <rect x="123.973" y="97.066" fill="#A1C3FC" width="3.602" height="5.751"/> <rect x="132.576" y="97.066" fill="#A1C3FC" width="3.602" height="5.751"/> <path fill="#A1C3FC" d="M141.181,97.066v5.751h0.16c0.297-1.883,0.483-3.804,0.563-5.751H141.181z"/> <path fill="#A1C3FC" d="M47.737,105.996h-3.499c0.442,1.963,0.993,3.884,1.66,5.751h1.838  C47.737,111.747,47.737,105.996,47.737,105.996z"/> <rect x="52.74" y="105.996" fill="#A1C3FC" width="3.602" height="5.751"/> <rect x="61.343" y="105.996" fill="#A1C3FC" width="3.602" height="5.751"/> <rect x="69.948" y="105.996" fill="#A1C3FC" width="3.602" height="5.751"/> <rect x="78.552" y="105.996" fill="#A1C3FC" width="3.602" height="5.751"/> <rect x="87.155" y="105.996" fill="#A1C3FC" width="3.602" height="5.751"/> <rect x="95.76" y="105.996" fill="#A1C3FC" width="3.602" height="5.751"/> <rect x="104.363" y="105.996" fill="#A1C3FC" width="3.602" height="5.751"/> <rect x="112.968" y="105.996" fill="#A1C3FC" width="3.602" height="5.751"/> <rect x="121.572" y="105.996" fill="#A1C3FC" width="3.602" height="5.751"/> <rect x="130.175" y="105.996" fill="#A1C3FC" width="3.602" height="5.751"/> <path fill="#A1C3FC" d="M138.78,111.747h0.284c0.667-1.867,1.218-3.788,1.66-5.751h-1.944V111.747z"/> <path fill="#A1C3FC" d="M47.348,115.334c0.828,1.847,1.753,3.64,2.79,5.359v-5.359H47.348z"/> <rect x="55.141" y="115.334" fill="#A1C3FC" width="3.602" height="5.751"/> <rect x="63.745" y="115.334" fill="#A1C3FC" width="3.602" height="5.751"/> <rect x="72.348" y="115.334" fill="#A1C3FC" width="3.602" height="5.751"/> <rect x="80.953" y="115.334" fill="#A1C3FC" width="3.602" height="5.751"/> <rect x="89.557" y="115.334" fill="#A1C3FC" width="3.602" height="5.751"/> <rect x="98.16" y="115.334" fill="#A1C3FC" width="3.602" height="5.751"/> <rect x="106.764" y="115.334" fill="#A1C3FC" width="3.602" height="5.751"/> <rect x="115.369" y="115.334" fill="#A1C3FC" width="3.602" height="5.751"/> <rect x="123.973" y="115.334" fill="#A1C3FC" width="3.602" height="5.751"/> <path fill="#A1C3FC" d="M132.576,115.334v5.751h2c0.564-0.913,1.097-1.846,1.601-2.796v-2.955H132.576z"/> <path fill="#A1C3FC" d="M52.74,124.263v0.308c1.118,1.51,2.324,2.948,3.602,4.319v-4.628H52.74V124.263z"/> <rect x="61.343" y="124.263" fill="#A1C3FC" width="3.602" height="5.751"/> <rect x="69.948" y="124.263" fill="#A1C3FC" width="3.602" height="5.751"/> <rect x="78.552" y="124.263" fill="#A1C3FC" width="3.602" height="5.751"/> <rect x="87.155" y="124.263" fill="#A1C3FC" width="3.602" height="5.751"/> <rect x="95.76" y="124.263" fill="#A1C3FC" width="3.602" height="5.751"/> <rect x="104.363" y="124.263" fill="#A1C3FC" width="3.602" height="5.751"/> <rect x="112.968" y="124.263" fill="#A1C3FC" width="3.602" height="5.751"/> <rect x="121.572" y="124.263" fill="#A1C3FC" width="3.602" height="5.751"/> <path fill="#A1C3FC" d="M130.175,127.141c0.79-0.93,1.546-1.891,2.266-2.878h-2.266V127.141z"/> <path fill="#A1C3FC" d="M63.745,133.601v1.801c1.165,0.835,2.364,1.624,3.602,2.358v-4.158H63.745L63.745,133.601z"/> <rect x="72.348" y="133.601" fill="#A1C3FC" width="3.602" height="5.751"/> <rect x="80.953" y="133.601" fill="#A1C3FC" width="3.602" height="5.751"/> <rect x="89.557" y="133.601" fill="#A1C3FC" width="3.602" height="5.751"/> <rect x="98.16" y="133.601" fill="#A1C3FC" width="3.602" height="5.751"/> <rect x="106.764" y="133.601" fill="#A1C3FC" width="3.602" height="5.751"/> <path fill="#A1C3FC" d="M115.369,133.601v5.411c1.232-0.646,2.433-1.345,3.602-2.09V133.6L115.369,133.601L115.369,133.601z"/> <path fill="#A1C3FC" d="M78.552,142.531v0.106c1.184,0.348,2.384,0.658,3.602,0.917v-1.023H78.552z"/> <path fill="#A1C3FC" d="M87.155,142.531v1.825c1.188,0.128,2.39,0.204,3.602,0.246v-2.071H87.155z"/> <path fill="#A1C3FC" d="M95.76,142.531v1.995c1.213-0.08,2.414-0.202,3.602-0.368v-1.627H95.76z"/> <path fill="#A1C3FC" d="M104.363,143.196c0.815-0.201,1.623-0.422,2.422-0.665h-2.422V143.196z"/> <polygon fill="#23286B" points="156.095,12.786 150.119,7.517 155.371,1.522 161.346,6.79 "/> <polygon fill="#89B3F4" points="172.171,48.368 166.195,43.1 171.446,37.104 177.422,42.373 "/> <g>  <path fill="#78A9EF" d="M183.31,46.129c-0.209,0-0.382-0.165-0.392-0.376c-0.084-1.813,0.029-8.171,4.986-13.853   c4.958-5.684,12.249-8.858,15.688-8.148c0.213,0.043,0.349,0.252,0.307,0.465c-0.044,0.214-0.256,0.348-0.465,0.307   c-3.216-0.659-10.295,2.572-14.939,7.895c-4.763,5.461-4.872,11.56-4.793,13.299c0.011,0.218-0.157,0.402-0.374,0.411   C183.323,46.129,183.317,46.129,183.31,46.129z"/> </g> <g>  <path fill="#78A9EF" d="M151.26,44.42c-0.18,0-0.344-0.126-0.383-0.31c-2.152-9.865-8.652-18.752-17.384-23.773   c-0.189-0.108-0.254-0.349-0.146-0.538c0.108-0.189,0.348-0.255,0.536-0.146c8.922,5.131,15.562,14.211,17.761,24.288   c0.047,0.213-0.088,0.422-0.3,0.469C151.315,44.417,151.287,44.42,151.26,44.42z"/> </g> <linearGradient id="SVGID_3_JbNxsvOdWgckEQFKlpeuw" gradientUnits="userSpaceOnUse" x1="1319.7301" y1="1755.4658" x2="1646.8652" y2="1614.5914" gradientTransform="matrix(0.2 0 0 0.2 -199.2 -214.2)">  <stop offset="0" stop-color="#FFBEB6"/>  <stop offset="1" stop-color="#F2A19C"/> </linearGradient> <path fill="url(#SVGID_3_JbNxsvOdWgckEQFKlpeuw)" d="M99.057,93.1c0.852-2.329-3.655-2.675-6.182,0.714c-9.031,12.104-22.141,20.518-33.211,30.777  c-5.622,5.21-11.262,10.439-16.188,16.316c-3.433,4.097-6.51,8.498-10.137,12.423c-6.906,7.478-13.704,11.639-22.289,17.094  c5.107,4.394,7.637,10.969,11.166,16.715c9.177-7.427,18.848-15.575,22.12-26.94c1.215-4.22,1.471-8.697,2.985-12.818  c4.858-13.227,21.059-17.435,31.588-26.769C86.929,113.506,95.206,103.627,99.057,93.1z"/> <path fill="#FFBEB6" d="M14.52,172.234c2.066,5.587,5.225,10.764,9.243,15.153c0.984,1.075,2.166,2.171,3.62,2.231  c1.286,0.053,2.446-0.721,3.481-1.488c5.165-3.823,9.872-8.256,15.19-11.861c9.865-6.69,21.437-10.283,32.82-13.788  c15.629-4.812,42.845-10.775,46.97-12.746c3.876-1.853-5.399-7.023-9.409-6.751c-8.59,0.583-14.55,0.84-24.173,2.22  c-5.031,0.721-7.071,0.197-12.962,1.182c21.847-4.177,41.412-9.206,60.662-20.379c5.022-2.915,12.814-10.375,9.106-13.44  c-2.184-1.805-41.771,13.777-67.412,17.268c-4.404,0.6-17.654-1.402-21.762,0.298C40.42,138.182,35.18,168.128,14.52,172.234z"/> <linearGradient id="SVGID_4_JbNxsvOdWgckEQFKlpeuw" gradientUnits="userSpaceOnUse" x1="1411.0262" y1="1691.6278" x2="1765.1599" y2="1561.9775" gradientTransform="matrix(0.2 0 0 0.2 -199.2 -214.2)">  <stop offset="0" stop-color="#FFBEB6"/>  <stop offset="1" stop-color="#F2A19C"/> </linearGradient> <path fill="url(#SVGID_4_JbNxsvOdWgckEQFKlpeuw)" d="M130.171,104.302c1.47-0.921,3.332-1.851,3.06-3.39c-0.537-3.046-5.363-2.421-8.322-1.552  c-22.8,6.697-44.46,17.288-63.767,31.18c-1.442,1.038-2.842,3.407-1.272,4.238c0.46,0.242,1.011,0.194,1.528,0.137  c23.093-2.55,45.793-8.653,67.063-18.031c7.774-3.427,14.303-5.441,20.542-11.219c1.972-1.826-1.531-5.725-4.095-5.021  C138.962,102.273,135.541,102.416,130.171,104.302z"/> <linearGradient id="SVGID_5_JbNxsvOdWgckEQFKlpeuw" gradientUnits="userSpaceOnUse" x1="2318.9814" y1="1710.5939" x2="2496" y2="1710.5939" gradientTransform="matrix(0.2 0 0 0.2 -199.2 -214.2)">  <stop offset="0" stop-color="#428DFC"/>  <stop offset="1" stop-color="#1D72D8"/> </linearGradient> <rect x="264.596" y="100.569" fill="url(#SVGID_5_JbNxsvOdWgckEQFKlpeuw)" width="35.404" height="54.7"/> <linearGradient id="SVGID_6_JbNxsvOdWgckEQFKlpeuw" gradientUnits="userSpaceOnUse" x1="766.9602" y1="2320.6484" x2="944.5062" y2="2320.6484" gradientTransform="matrix(0.1784 -0.0903 0.0903 0.1784 -334.114 -166.8995)">  <stop offset="0" stop-color="#428DFC"/>  <stop offset="1" stop-color="#1D72D8"/> </linearGradient> <polygon fill="url(#SVGID_6_JbNxsvOdWgckEQFKlpeuw)" points="56.207,186.214 24.62,202.253 0,153.448 31.587,137.41 "/> <path id="texture_16_JbNxsvOdWgckEQFKlpeuw" fill="#FFFFFF" d="M77.971,131.023c-0.279,0.091-0.447,0.33-0.358,0.61l0,0  c0.091,0.28,0.329,0.449,0.608,0.359l0,0c0.279-0.091,0.447-0.33,0.358-0.61l0,0C78.488,131.102,78.249,130.932,77.971,131.023  L77.971,131.023z M33.673,152.166c-0.239-0.17-0.518-0.08-0.688,0.161c-0.169,0.24-0.079,0.519,0.16,0.69l0,0  c0.239,0.17,0.518,0.08,0.688-0.161C34.132,152.635,33.913,152.335,33.673,152.166L33.673,152.166L33.673,152.166z M44.698,158.108  c-0.239-0.17-0.518-0.08-0.688,0.161c-0.169,0.24-0.079,0.519,0.16,0.689l0,0c0.239,0.17,0.518,0.08,0.688-0.161l0,0  C45.007,158.687,44.937,158.277,44.698,158.108L44.698,158.108z M54.748,135.58c-0.169,0.24-0.208,0.5-0.118,0.779  c0.239,0.17,0.498,0.209,0.777,0.119c0.169-0.24,0.208-0.5,0.099-0.649C55.306,135.4,55.047,135.36,54.748,135.58z M62.66,145.433  c-0.169,0.24-0.208,0.5-0.118,0.779c0.239,0.17,0.498,0.209,0.777,0.119c0.169-0.24,0.208-0.5,0.099-0.649  C63.217,145.252,62.829,145.193,62.66,145.433L62.66,145.433z M31.824,177.411c-0.259-0.04-0.557,0.181-0.597,0.441  c-0.04,0.26,0.18,0.559,0.439,0.599l0,0c0.259,0.04,0.557-0.181,0.597-0.441l0,0C32.303,177.75,32.082,177.451,31.824,177.411z   M44.336,178.794c-0.259-0.04-0.557,0.181-0.597,0.441s0.18,0.559,0.439,0.599c0.259,0.04,0.557-0.181,0.597-0.441l0,0  C44.814,179.133,44.595,178.833,44.336,178.794L44.336,178.794L44.336,178.794z M64.49,128.162c-0.149,0.11-0.337,0.48-0.099,0.649  c0.11,0.149,0.478,0.338,0.647,0.099c0.149-0.11,0.337-0.48,0.099-0.649l0,0C65.047,127.982,64.789,127.942,64.49,128.162  L64.49,128.162z M70.757,137.498c-0.149,0.11-0.337,0.48-0.099,0.649c0.11,0.149,0.349,0.319,0.647,0.099  c0.149-0.11,0.318-0.35,0.099-0.649l0,0C71.165,137.427,70.906,137.387,70.757,137.498L70.757,137.498L70.757,137.498z   M38.554,167.139c-0.259-0.04-0.538,0.05-0.578,0.311c-0.04,0.26,0.07,0.41,0.31,0.58l0,0c0.259,0.04,0.538-0.05,0.578-0.311l0,0  C38.903,167.458,38.813,167.178,38.554,167.139L38.554,167.139z M49.484,169.344c-0.259-0.04-0.538,0.05-0.578,0.311  c-0.04,0.26,0.07,0.41,0.31,0.58l0,0c0.259,0.04,0.538-0.05,0.578-0.311l0,0C49.832,169.663,49.741,169.384,49.484,169.344  L49.484,169.344z M53.08,147.425c-0.239-0.17-0.518-0.08-0.688,0.161c-0.169,0.24-0.079,0.519,0.16,0.689  c0.239,0.17,0.518,0.08,0.688-0.161C53.409,147.873,53.32,147.593,53.08,147.425L53.08,147.425z M53.885,122.95  c-0.239-0.17-0.518-0.08-0.688,0.161c-0.169,0.24-0.079,0.519,0.16,0.689c0.239,0.17,0.518,0.08,0.688-0.161  C54.214,123.399,54.125,123.12,53.885,122.95L53.885,122.95z M64.583,130.171c-0.239-0.17-0.518-0.08-0.687,0.161  c-0.169,0.24-0.079,0.519,0.16,0.689c0.239,0.17,0.518,0.08,0.687-0.161C64.912,130.621,64.822,130.34,64.583,130.171  L64.583,130.171z M75.428,137.282c-0.239-0.17-0.518-0.08-0.688,0.161c-0.169,0.24-0.079,0.519,0.16,0.689  c0.239,0.17,0.518,0.08,0.688-0.161C75.629,137.711,75.538,137.432,75.428,137.282z M42.988,176.327  c-0.279,0.091-0.447,0.33-0.358,0.61c0.091,0.28,0.329,0.449,0.608,0.359c0.279-0.09,0.447-0.33,0.358-0.61  C43.635,176.426,43.267,176.237,42.988,176.327L42.988,176.327z M91.713,129.536c-0.219-0.3-0.478-0.338-0.777-0.119   M49.287,148.839c-0.259-0.04-0.557,0.181-0.597,0.441c-0.04,0.26,0.18,0.559,0.439,0.599c0.259,0.04,0.557-0.181,0.597-0.441l0,0  C49.766,149.177,49.546,148.877,49.287,148.839L49.287,148.839L49.287,148.839z M48.777,139.984  c-0.259-0.04-0.557,0.181-0.597,0.441c-0.04,0.26,0.18,0.559,0.439,0.599c0.259,0.04,0.538-0.05,0.597-0.441  C49.256,140.324,49.037,140.024,48.777,139.984L48.777,139.984z M61.311,142.967c-0.259-0.04-0.557,0.181-0.597,0.441  s0.05,0.54,0.439,0.599c0.259,0.04,0.557-0.181,0.727-0.421C61.79,143.305,61.571,143.006,61.311,142.967L61.311,142.967z   M76.849,126.199c-0.239-0.17-0.518-0.08-0.688,0.161l0,0c-0.169,0.24-0.079,0.519,0.141,0.819c0.239,0.17,0.518,0.08,0.816-0.141  C77.178,126.647,77.087,126.367,76.849,126.199L76.849,126.199z M78.339,131.213c-0.259-0.04-0.409,0.071-0.557,0.181  c-0.04,0.26,0.07,0.41,0.18,0.559c0.259,0.04,0.409-0.071,0.557-0.181l0,0C78.559,131.512,78.468,131.232,78.339,131.213  L78.339,131.213L78.339,131.213z"/> <g>  <path fill="#E94A47" d="M246.628,165.273l-40.233-12.295c-0.859,1.096-1.634,2.285-2.299,3.567   c-0.565,1.089-1.029,2.204-1.404,3.333l43.179,13.194C246.588,170.497,246.828,167.859,246.628,165.273z"/>  <path fill="#E94A47" d="M234.812,147.058l-8.514-2.602c-5.127-0.497-10.262,0.792-14.534,3.591l33.148,10.128   C242.978,153.58,239.521,149.598,234.812,147.058z"/>  <path fill="#E94A47" d="M229.023,189.104l-21.258-6.496c1.675,1.768,3.662,3.294,5.938,4.483   C218.608,189.652,224.019,190.223,229.023,189.104z"/>  <path fill="#E94A47" d="M243.337,178.873l-41.774-12.764c-0.111,2.878,0.331,5.736,1.274,8.422l34.782,10.628   C239.854,183.489,241.805,181.376,243.337,178.873z"/> </g> <polygon fill="#FFFFFF" points="115.072,149.592 113.049,147.562 115.072,145.533 117.095,147.562 "/> <polygon fill="#FFFFFF" points="189.346,116.231 187.323,114.202 189.346,112.173 191.368,114.202 "/> </g></g>
              </svg>